<?xml version="1.0" standalone="no"?>
<!DOCTYPE svg PUBLIC "-//W3C//DTD SVG 20010904//EN"
 "http://www.w3.org/TR/2001/REC-SVG-20010904/DTD/svg10.dtd">
<svg version="1.0" xmlns="http://www.w3.org/2000/svg"
 width="200.000000pt" height="200.000000pt" viewBox="0 0 200.000000 200.000000"
 preserveAspectRatio="xMidYMid meet">
<metadata>
Created by potrace 1.16, written by Peter Selinger 2001-2019
</metadata>
<g transform="translate(0.000000,200.000000) scale(0.016667,-0.016667)"
fill="#000000" stroke="none">
<path d="M3040 6000 l0 -4250 2960 0 2960 0 0 4250 0 4250 -2960 0 -2960 0 0
-4250z m5790 0 l0 -4120 -2830 0 -2830 0 0 4120 0 4120 2830 0 2830 0 0 -4120z"/>
<path d="M6291 8880 c-122 -44 -169 -57 -182 -50 -78 42 -161 -68 -99 -130 20
-20 20 -33 20 -595 l0 -575 161 0 161 0 36 -31 c28 -25 41 -30 65 -25 76 15
98 94 42 149 -22 23 -77 21 -108 -3 -22 -18 -40 -20 -156 -20 l-131 0 0 200 0
200 97 0 c83 0 100 -3 118 -20 36 -34 77 -36 113 -5 25 21 32 35 32 61 0 76
-92 113 -146 59 -23 -23 -32 -25 -119 -25 l-95 0 0 303 c0 291 1 303 20 315
11 7 26 26 33 43 11 29 24 36 149 80 l136 48 61 -89 c96 -139 96 -130 4 -222
-57 -57 -83 -78 -97 -74 -31 8 -85 -20 -96 -50 -23 -60 17 -118 82 -116 41 1
78 37 78 76 0 26 13 43 86 109 58 51 95 77 111 77 14 0 38 13 55 30 25 26 29
36 24 62 -3 18 -16 43 -29 56 -18 20 -29 23 -65 19 l-42 -5 -73 104 c-39 57
-74 103 -77 103 -3 0 -79 -27 -169 -59z"/>
<path d="M5467 8920 c-55 -14 -128 -54 -166 -92 -66 -65 -87 -156 -56 -243 8
-22 15 -42 15 -45 0 -3 -28 -4 -62 -2 -51 2 -71 -2 -103 -20 -45 -26 -99 -100
-115 -156 -15 -54 -12 -154 5 -195 8 -20 15 -38 15 -40 0 -2 -19 -9 -42 -16
-24 -7 -58 -24 -75 -37 -69 -52 -116 -182 -96 -262 10 -38 9 -40 -25 -67 -109
-87 -111 -292 -5 -406 l44 -47 -44 -41 c-84 -78 -124 -216 -97 -340 26 -122
114 -235 183 -235 l33 0 -12 -35 c-30 -83 -7 -159 70 -230 40 -36 155 -99 229
-124 9 -4 20 -15 23 -24 41 -119 105 -198 203 -246 61 -30 72 -32 166 -31 114
0 183 21 248 75 59 48 75 92 87 226 22 244 39 1939 24 2303 l-6 145 -68 66
c-92 90 -161 123 -260 126 -41 1 -92 -2 -113 -7z m218 -85 c28 -13 73 -46 101
-72 l52 -48 7 -363 c4 -200 4 -366 1 -369 -3 -3 -19 6 -35 20 -38 32 -127 66
-209 80 -55 9 -65 8 -80 -7 -28 -28 -4 -48 74 -62 80 -13 134 -34 181 -70 62
-47 63 -55 63 -355 l0 -272 -61 7 c-33 4 -90 16 -126 27 -60 19 -67 19 -82 5
-12 -13 -13 -20 -5 -34 14 -21 129 -58 212 -67 l62 -7 0 -204 0 -204 -26 -6
c-14 -4 -73 -4 -132 -2 -170 7 -224 48 -317 237 -36 72 -40 76 -69 65 -25 -9
-19 -38 23 -122 99 -197 200 -257 418 -250 l105 3 -7 -205 c-12 -364 -19 -402
-87 -453 -22 -16 -129 -59 -134 -54 -1 1 2 45 8 97 22 216 3 284 -111 393 -52
50 -63 57 -81 47 -30 -16 -25 -35 25 -81 25 -24 59 -63 75 -88 28 -41 30 -51
29 -135 0 -103 -12 -222 -22 -232 -4 -4 -31 -2 -61 5 -98 22 -175 98 -218 214
-16 43 -28 62 -47 69 -78 32 -196 91 -225 113 -38 29 -66 80 -66 119 0 42 42
114 117 200 96 111 106 125 99 141 -14 37 -37 26 -113 -52 -45 -45 -98 -89
-126 -102 -45 -22 -49 -22 -73 -6 -36 23 -80 97 -94 157 -18 74 -8 166 25 227
45 81 52 85 172 91 83 4 108 9 116 21 16 26 1 47 -40 54 -140 22 -190 50 -229
126 -46 92 -28 226 36 267 16 9 22 6 44 -23 32 -42 107 -95 134 -95 21 0 35
22 26 43 -2 7 -23 24 -45 37 -132 82 -157 242 -54 346 38 37 51 44 84 44 45 0
39 6 134 -140 34 -52 98 -132 142 -177 67 -68 79 -84 69 -97 -6 -9 -30 -63
-53 -121 -34 -84 -40 -109 -31 -125 22 -41 48 -23 73 51 8 26 30 80 48 122
l34 75 60 0 c106 -1 165 25 149 67 -7 18 -30 19 -90 4 -35 -9 -59 -9 -102 1
-48 11 -65 21 -113 71 -60 60 -180 235 -245 353 -32 59 -38 79 -38 130 1 76
34 158 77 188 58 41 150 23 243 -48 17 -13 40 -24 51 -24 40 0 34 29 -17 93
-73 90 -93 138 -88 209 4 50 9 63 38 93 43 44 106 75 173 85 68 11 111 4 172
-25z"/>
<path d="M6863 8550 c-27 -11 -43 -40 -43 -77 -1 -22 -16 -41 -80 -95 -68 -59
-84 -68 -118 -68 -27 0 -45 -7 -60 -23 -29 -30 -30 -89 -2 -117 18 -18 20 -33
20 -161 0 -126 -2 -144 -20 -166 -61 -78 28 -183 108 -127 35 24 44 59 27 100
-8 19 -21 37 -30 40 -12 5 -15 29 -15 146 0 137 0 139 26 161 17 15 27 35 29
57 2 29 15 46 80 105 105 97 112 95 228 -41 49 -57 85 -108 82 -114 -11 -17 5
-70 28 -90 27 -26 77 -25 111 1 20 16 26 29 26 57 -1 49 -20 73 -73 86 -38 10
-55 24 -125 107 -77 91 -80 97 -75 134 9 71 -53 113 -124 85z"/>
<path d="M6835 8048 c-52 -30 -61 -93 -19 -135 23 -23 31 -25 74 -20 45 6 60
0 217 -73 l168 -79 3 -62 3 -61 -134 7 -134 7 -73 -81 c-62 -68 -79 -81 -105
-81 -73 0 -106 -101 -48 -147 33 -27 53 -29 93 -8 31 16 44 44 42 86 -2 19 14
43 59 93 l61 66 119 0 119 0 0 -123 0 -123 -43 -42 c-31 -31 -50 -42 -69 -40
-60 5 -111 -56 -92 -109 25 -71 117 -82 154 -20 11 18 17 40 14 50 -4 12 12
37 50 80 l56 62 -2 244 -3 244 -192 90 c-152 71 -193 94 -193 109 0 27 -54 78
-82 78 -13 0 -32 -6 -43 -12z"/>
<path d="M6050 7393 c-62 -22 -79 -95 -34 -140 l26 -26 -3 -478 -3 -478 133
-141 133 -140 228 0 229 0 86 119 c74 103 90 120 120 125 37 7 75 47 75 78 0
57 -64 107 -113 89 -40 -16 -58 -45 -56 -92 2 -40 -4 -53 -72 -146 l-74 -103
-117 0 -118 0 0 146 c0 144 1 147 25 170 53 49 14 138 -60 138 -74 0 -113 -89
-60 -138 24 -23 25 -26 25 -170 l0 -146 -47 1 c-48 1 -48 1 -160 121 l-113
120 0 146 c0 81 3 184 7 230 l6 82 75 0 c64 0 78 -3 104 -25 73 -61 166 9 132
100 -8 19 -55 45 -83 45 -11 0 -33 -11 -49 -25 -26 -22 -39 -25 -106 -25 l-76
0 0 205 c0 168 3 207 14 211 21 8 39 60 32 89 -9 37 -71 70 -106 58z"/>
<path d="M6405 7320 c-61 -23 -77 -99 -30 -145 13 -14 35 -25 49 -25 18 0 38
-17 76 -65 l52 -65 104 0 104 0 0 -56 c0 -45 -5 -62 -25 -86 -72 -86 41 -193
120 -113 33 32 32 74 0 109 -21 23 -25 37 -25 87 l0 59 61 0 61 0 126 -92 c69
-51 133 -98 141 -105 14 -10 10 -25 -29 -122 l-45 -111 -161 0 c-158 0 -161 0
-184 25 -50 53 -140 16 -140 -57 1 -37 14 -59 47 -76 33 -18 59 -14 91 13 29
25 32 25 210 25 l179 0 51 123 c28 67 58 138 66 159 l15 36 -174 126 -174 126
-195 0 -195 0 -36 47 c-30 40 -35 53 -30 80 4 21 0 43 -10 63 -8 16 -17 30
-18 30 -1 0 -16 4 -32 9 -17 4 -39 5 -50 1z"/>
<path d="M3814 4611 c-23 -10 -50 -32 -62 -48 -43 -61 -50 -169 -16 -251 7
-19 58 -80 113 -136 74 -76 102 -113 112 -144 25 -85 -14 -146 -84 -128 -28 7
-47 48 -47 102 l0 34 -60 0 -60 0 0 -47 c0 -139 70 -213 200 -213 126 1 201
99 186 243 -8 82 -37 131 -133 225 -93 90 -129 153 -118 203 9 39 30 59 65 59
37 0 60 -32 60 -82 l0 -38 60 0 60 0 0 58 c0 40 -7 69 -23 97 -43 77 -161 108
-253 66z"/>
<path d="M4140 4560 l0 -60 70 0 70 0 0 -355 0 -355 60 0 60 0 0 355 0 355 70
0 70 0 0 60 0 60 -200 0 -200 0 0 -60z"/>
<path d="M4600 4205 l0 -415 180 0 180 0 0 60 0 60 -115 0 -115 0 0 125 0 125
90 0 90 0 0 60 0 60 -90 0 -90 0 0 110 0 110 115 0 115 0 0 60 0 60 -180 0
-180 0 0 -415z"/>
<path d="M5030 4205 l0 -415 65 0 65 0 0 169 0 168 69 5 c86 6 132 32 160 92
17 35 21 61 21 152 0 138 -20 186 -90 222 -39 19 -60 22 -167 22 l-123 0 0
-415z m234 279 c12 -12 16 -37 16 -106 0 -110 -11 -128 -77 -128 l-43 0 0 125
0 125 44 0 c27 0 51 -6 60 -16z"/>
<path d="M5455 4593 c3 -16 21 -192 40 -393 20 -201 38 -375 41 -387 4 -22 9
-23 89 -23 61 0 85 4 86 13 3 72 57 518 62 507 3 -8 15 -112 26 -230 12 -118
24 -232 27 -252 l6 -38 78 0 78 0 6 38 c9 53 76 734 76 765 0 26 -2 27 -55 27
-39 0 -55 -4 -55 -13 0 -8 -11 -139 -25 -291 -14 -153 -25 -284 -25 -293 0 -9
-2 -14 -5 -11 -3 3 -17 126 -30 274 -14 148 -28 284 -31 302 l-5 32 -69 0
c-39 0 -70 -1 -70 -2 -2 -38 -60 -601 -62 -604 -3 -2 -14 110 -27 249 -12 138
-25 276 -28 305 l-6 52 -63 0 -63 0 4 -27z"/>
<path d="M6140 4205 l0 -415 180 0 180 0 0 60 0 60 -115 0 -115 0 0 125 0 125
90 0 90 0 0 60 0 60 -90 0 -90 0 0 110 0 110 115 0 115 0 0 60 0 60 -180 0
-180 0 0 -415z"/>
<path d="M6666 4603 c-2 -10 -32 -189 -66 -398 -33 -209 -62 -388 -64 -397 -4
-16 4 -18 59 -18 l63 0 7 67 c10 96 7 93 90 93 l73 0 7 -67 c10 -95 8 -93 80
-93 l64 0 -6 38 c-4 20 -34 206 -67 412 l-61 375 -87 3 c-76 2 -87 1 -92 -15z
m138 -505 l6 -38 -61 0 c-53 0 -60 2 -55 18 2 9 14 91 26 182 12 91 24 172 27
180 4 8 16 -57 29 -145 12 -88 25 -177 28 -197z"/>
<path d="M6980 4601 c0 -17 100 -691 115 -778 l6 -33 84 0 c47 0 85 1 86 3 0
1 29 187 63 412 l62 410 -54 3 c-31 2 -58 -2 -62 -7 -3 -6 -24 -146 -45 -312
-23 -177 -42 -294 -46 -283 -4 11 -25 151 -45 312 l-38 292 -63 0 c-55 0 -63
-2 -63 -19z"/>
<path d="M7460 4205 l0 -415 175 0 175 0 0 60 0 60 -110 0 -110 0 0 125 0 125
90 0 90 0 0 60 0 60 -90 0 -90 0 0 110 0 110 110 0 110 0 0 60 0 60 -175 0
-175 0 0 -415z"/>
<path d="M7890 4206 l0 -416 65 0 65 0 0 175 0 175 40 0 c70 0 80 -20 80 -157
0 -65 3 -135 6 -155 l7 -38 68 0 68 0 -10 32 c-5 18 -9 90 -9 161 0 139 -11
182 -51 211 l-24 17 22 17 c37 28 53 83 53 179 0 102 -21 157 -72 188 -28 17
-55 21 -170 23 l-138 4 0 -416z m234 272 c11 -16 16 -46 16 -100 0 -92 -18
-118 -82 -118 l-38 0 0 120 0 120 44 0 c35 0 48 -5 60 -22z"/>
</g>
</svg>
