<?xml version="1.0" standalone="no"?>
<!DOCTYPE svg PUBLIC "-//W3C//DTD SVG 20010904//EN"
 "http://www.w3.org/TR/2001/REC-SVG-20010904/DTD/svg10.dtd">
<svg version="1.0" xmlns="http://www.w3.org/2000/svg"
 width="400px" height="100px" viewBox="0 0 900.000000 294.000000"
 preserveAspectRatio="xMidYMid meet">
<metadata>
Created by potrace 1.10, written by Peter Selinger 2001-2011
</metadata>
<g transform="translate(0.000000,294.000000) scale(0.100000,-0.100000)"
fill="#ffffff" stroke="none">
<path d="M1315 2823 c-40 -20 -82 -60 -107 -101 -29 -48 -29 -157 1 -206 26
-41 91 -96 115 -96 31 0 36 -49 36 -349 0 -326 1 -318 -60 -336 -79 -24 -156
-86 -191 -153 -12 -24 -28 -46 -36 -49 -14 -5 -73 8 -148 32 -22 8 -52 16 -67
19 -39 9 -58 33 -58 74 0 47 -38 104 -90 137 -80 51 -204 25 -257 -54 -39 -58
-47 -106 -28 -165 20 -61 55 -102 110 -127 79 -37 145 -21 221 53 39 38 44 39
75 30 114 -34 137 -41 164 -47 65 -14 70 -23 70 -126 l0 -93 -50 -19 c-27 -10
-61 -22 -75 -27 -14 -5 -50 -18 -80 -30 -30 -12 -66 -25 -80 -30 -14 -5 -50
-18 -80 -30 -30 -12 -66 -25 -80 -30 -14 -5 -50 -18 -80 -30 -30 -12 -66 -25
-80 -30 -14 -5 -48 -17 -76 -28 -32 -12 -57 -16 -65 -11 -27 17 -75 10 -97
-14 -35 -37 -27 -79 20 -103 36 -19 60 -12 94 29 24 28 43 39 124 67 14 5 50
18 80 30 30 12 66 25 80 30 14 5 50 18 80 30 30 12 66 25 80 30 14 5 50 18 80
30 30 12 66 25 80 30 14 5 50 18 80 30 30 12 62 24 71 27 16 5 139 -109 139
-129 0 -5 -9 -33 -21 -61 -22 -55 -43 -109 -64 -167 -7 -19 -20 -54 -29 -77
-16 -44 -35 -93 -60 -160 -52 -140 -50 -137 -103 -146 -67 -11 -113 -37 -150
-86 -78 -101 -44 -264 66 -321 61 -31 159 -28 218 6 65 39 103 103 103 176 0
69 -7 90 -54 151 -40 52 -43 70 -22 119 8 18 21 52 30 76 9 23 23 61 32 85 9
23 22 59 30 80 8 20 21 56 30 80 9 23 23 60 31 82 32 83 47 120 54 129 4 4 50
9 102 11 l95 3 17 -42 c10 -22 23 -57 30 -76 7 -19 18 -51 25 -70 22 -62 23
-79 6 -105 -31 -47 -13 -106 41 -134 68 -35 157 30 139 102 -9 38 -45 76 -78
85 -27 7 -35 17 -55 72 -13 36 -31 83 -39 105 -31 80 -31 80 39 150 36 36 72
65 81 65 8 0 30 -6 48 -14 18 -8 69 -28 113 -46 44 -17 94 -37 110 -45 17 -7
50 -20 75 -30 25 -9 59 -23 75 -30 17 -7 50 -20 75 -30 25 -9 59 -23 75 -30
17 -7 52 -22 80 -33 40 -16 53 -28 70 -63 38 -82 123 -111 203 -70 49 25 76
73 75 133 -2 120 -137 180 -239 106 -44 -31 -46 -32 -77 -16 -18 8 -50 22 -72
31 -77 29 -130 50 -160 62 -16 7 -48 20 -70 28 -22 8 -76 29 -120 47 -44 18
-98 39 -120 47 -22 8 -56 23 -75 34 l-35 18 -6 88 c-3 48 -11 101 -17 116 -19
45 -15 52 55 109 194 156 195 156 252 155 46 -2 56 1 77 26 38 44 40 72 10
117 -25 38 -29 40 -77 40 -64 0 -99 -32 -99 -91 0 -21 -6 -44 -13 -51 -44 -43
-244 -198 -256 -198 -4 0 -14 7 -21 15 -20 24 -113 82 -145 89 -16 4 -40 14
-52 22 l-23 14 0 306 c0 179 4 313 10 324 5 10 20 20 33 23 32 9 85 58 109
103 27 51 27 153 -1 197 -23 38 -64 76 -108 100 -39 21 -127 22 -168 0z"/>
<path d="M3728 1798 c-8 -7 -24 -42 -34 -76 -16 -54 -26 -69 -62 -95 -36 -26
-43 -36 -40 -61 2 -22 9 -32 23 -34 11 -2 24 -8 29 -12 5 -5 8 -89 7 -187 -2
-251 19 -322 108 -359 67 -28 177 -10 187 32 3 12 4 36 2 55 -3 34 -4 34 -56
37 -50 3 -54 5 -68 37 -19 47 -20 367 -1 383 7 6 35 12 62 14 l50 3 3 50 c4
58 -11 75 -68 75 -48 0 -60 15 -60 75 0 28 -5 56 -12 63 -16 16 -50 15 -70 0z"/>
<path d="M3270 1653 c-93 -32 -130 -80 -130 -171 0 -100 29 -142 159 -232 27
-19 58 -49 67 -67 17 -29 17 -33 0 -58 -33 -51 -69 -52 -208 -8 -16 5 -18 -2
-18 -55 0 -68 5 -74 72 -91 180 -43 317 42 318 197 0 89 -46 151 -162 221 -44
26 -78 66 -78 92 0 21 33 55 59 62 10 2 36 -2 57 -9 56 -20 78 -12 97 38 20
50 15 58 -57 82 -61 20 -117 20 -176 -1z"/>
<path d="M4184 1646 c-58 -27 -102 -79 -130 -151 -16 -41 -19 -76 -18 -190 0
-123 3 -146 23 -188 60 -129 191 -184 343 -144 68 18 88 40 88 98 0 56 -10 66
-44 44 -33 -22 -153 -30 -186 -13 -37 20 -71 86 -68 133 l3 40 160 5 160 5 -1
75 c-2 150 -60 257 -160 293 -66 23 -109 21 -170 -7z m134 -118 c24 -27 42
-70 42 -104 0 -24 -2 -24 -85 -24 l-85 0 0 31 c0 18 9 47 21 65 35 58 72 68
107 32z"/>
<path d="M4880 1654 c-14 -9 -39 -31 -57 -47 -27 -25 -35 -28 -48 -17 -8 7
-15 21 -15 31 0 40 -100 56 -120 20 -15 -30 -14 -943 2 -959 12 -12 104 -17
132 -6 14 5 16 31 16 180 0 96 4 174 8 174 5 0 17 -9 28 -21 83 -92 217 -50
272 86 51 123 45 368 -9 466 -50 89 -150 133 -209 93z m35 -130 c9 -4 25 -24
35 -45 17 -32 20 -59 20 -166 0 -114 -3 -132 -23 -168 -37 -66 -102 -62 -136
8 -18 36 -21 62 -21 160 0 122 13 179 47 205 18 13 52 16 78 6z"/>
<path d="M6313 1652 c-85 -35 -131 -104 -158 -238 -25 -126 -7 -247 49 -337
65 -103 181 -140 320 -103 60 16 86 45 86 97 0 44 -20 60 -51 40 -30 -18 -134
-26 -167 -12 -46 19 -72 63 -75 124 l-2 52 151 3 c105 2 155 6 161 15 16 20
-4 201 -26 245 -56 108 -181 157 -288 114z m125 -127 c32 -27 52 -99 33 -118
-13 -13 -140 -12 -152 0 -17 17 7 96 36 121 33 28 47 28 83 -3z"/>
<path d="M6925 1665 c-5 -1 -35 -10 -65 -19 -30 -9 -64 -23 -74 -31 -19 -15
-19 -16 3 -60 12 -25 28 -45 34 -45 7 0 40 9 74 20 67 21 85 19 121 -13 17
-16 22 -31 22 -68 0 -52 -8 -59 -68 -59 -62 0 -150 -26 -187 -54 -47 -36 -68
-86 -68 -166 0 -76 27 -146 68 -178 61 -49 166 -37 223 24 37 41 53 40 64 -3
8 -32 29 -43 79 -43 49 0 51 9 47 292 -3 259 -3 264 -28 303 -28 46 -49 63
-105 87 -35 15 -112 22 -140 13z m113 -438 c4 -68 -21 -117 -66 -136 -65 -27
-105 30 -86 121 11 49 58 80 114 76 l35 -3 3 -58z"/>
<path d="M8045 1651 c-113 -56 -165 -162 -165 -340 0 -126 24 -201 86 -270 69
-76 166 -98 291 -66 70 18 85 36 81 95 -3 51 2 49 -105 28 -107 -20 -159 9
-184 105 -21 77 -21 77 156 77 117 0 155 3 156 13 5 61 -5 181 -19 220 -18 53
-65 108 -114 133 -50 26 -136 28 -183 5z m134 -136 c24 -27 31 -45 31 -75 l0
-40 -62 -1 c-110 -2 -113 0 -97 65 12 48 47 86 79 86 10 0 32 -16 49 -35z"/>
<path d="M8722 1650 c-18 -11 -42 -36 -54 -56 -20 -34 -22 -35 -35 -18 -7 10
-13 25 -13 34 0 28 -34 50 -76 50 -22 0 -45 -5 -52 -12 -9 -9 -12 -97 -12
-335 0 -308 1 -323 19 -333 27 -14 114 -13 129 2 8 8 12 66 12 196 0 101 5
202 11 226 17 70 53 100 129 108 22 3 26 10 37 63 14 70 5 95 -35 95 -15 0
-42 -9 -60 -20z"/>
<path d="M5217 1653 c-11 -10 -8 -59 7 -126 8 -34 22 -100 31 -147 56 -283 78
-385 88 -397 11 -15 163 -18 184 -5 7 4 20 46 29 93 8 46 22 114 30 150 8 37
14 79 14 93 0 23 22 131 36 176 8 25 24 -9 24 -52 0 -21 7 -75 15 -120 17 -91
41 -232 50 -290 8 -48 27 -58 115 -58 91 0 107 9 115 62 3 24 12 72 20 108 7
36 21 103 30 150 9 47 23 114 30 150 31 150 37 190 32 205 -9 23 -123 21 -136
-2 -10 -20 -21 -74 -46 -228 -27 -159 -33 -189 -46 -220 -10 -28 -12 -28 -19
-10 -5 11 -9 39 -9 62 -1 23 -7 75 -15 115 -39 194 -46 235 -46 255 0 33 -29
43 -120 43 -92 0 -90 3 -110 -112 -7 -35 -18 -94 -25 -133 -8 -38 -17 -92 -20
-120 -8 -61 -26 -125 -35 -125 -11 0 -20 39 -20 87 0 23 -6 75 -14 115 -8 40
-22 116 -31 168 -10 52 -22 101 -28 108 -10 13 -118 17 -130 5z"/>
<path d="M7284 1645 c-7 -18 -5 -31 26 -140 12 -44 26 -96 30 -115 4 -19 18
-71 30 -115 12 -44 26 -96 30 -115 22 -100 43 -166 58 -177 9 -8 46 -13 92
-13 87 0 103 10 115 70 4 19 13 60 22 90 31 115 47 175 89 335 7 28 20 75 28
106 23 80 17 89 -60 89 -71 0 -86 -12 -98 -80 -4 -19 -13 -62 -21 -95 -32
-143 -45 -203 -50 -242 -4 -22 -15 -49 -25 -58 -18 -16 -19 -15 -24 32 -4 26
-13 77 -20 113 -8 36 -22 99 -31 140 -9 41 -24 100 -33 130 l-17 55 -68 3
c-54 2 -68 0 -73 -13z"/>
</g>
</svg>
